<?xml version="1.0" encoding="utf-8"?>
<!-- Generator: Adobe Illustrator 25.0.0, SVG Export Plug-In . SVG Version: 6.00 Build 0)  -->
<svg version="1.1" xmlns="http://www.w3.org/2000/svg" xmlns:xlink="http://www.w3.org/1999/xlink" x="0px" y="0px"
	 viewBox="0 0 500 500" style="enable-background:new 0 0 500 500;" xml:space="preserve">
<style type="text/css">
	.st0{fill:#EBEBEB;}
	.st1{fill:#F5F5F5;}
	.st2{fill:#E6E6E6;}
	.st3{fill:#E0E0E0;}
	.st4{display:none;}
	.st5{display:inline;}
	.st6{fill:#407BFF;}
	.st7{opacity:0.9;fill:#FFFFFF;}
	.st8{opacity:0.8;fill:#FFFFFF;enable-background:new    ;}
	.st9{opacity:0.2;fill:#FFFFFF;enable-background:new    ;}
	.st10{fill:#263238;}
	.st11{opacity:0.4;fill:#FFFFFF;enable-background:new    ;}
	.st12{opacity:0.6;fill:#FFFFFF;enable-background:new    ;}
	.st13{opacity:0.2;enable-background:new    ;}
	.st14{opacity:0.3;enable-background:new    ;}
	.st15{opacity:0.1;fill:#FFFFFF;enable-background:new    ;}
	.st16{fill:#E4897B;}
	.st17{opacity:0.2;}
	.st18{fill:#FFFFFF;}
	.st19{opacity:0.5;fill:#FFFFFF;enable-background:new    ;}
	.st20{fill:none;stroke:#263238;stroke-width:3;stroke-miterlimit:10;}
</style>
<g id="Background_Complete">
	<g>
		<rect y="382.4" class="st0" width="500" height="0.25"/>
		<rect x="416.78" y="398.49" class="st0" width="33.12" height="0.25"/>
		<rect x="322.53" y="401.21" class="st0" width="8.69" height="0.25"/>
		<rect x="396.59" y="389.21" class="st0" width="19.19" height="0.25"/>
		<rect x="52.46" y="390.89" class="st0" width="43.19" height="0.25"/>
		<rect x="104.56" y="390.89" class="st0" width="6.33" height="0.25"/>
		<rect x="131.47" y="395.11" class="st0" width="93.68" height="0.25"/>
		<path class="st0" d="M237.01,337.8H43.92c-3.15,0-5.71-2.56-5.71-5.71V60.66c0-3.15,2.56-5.71,5.71-5.71h193.1
			c3.15,0,5.71,2.56,5.71,5.71v271.43C242.72,335.24,240.16,337.8,237.01,337.8z M43.92,55.2c-3.01,0-5.46,2.45-5.46,5.46v271.43
			c0,3.01,2.45,5.46,5.46,5.46h193.1c3.01,0,5.46-2.45,5.46-5.46V60.66c0-3.01-2.45-5.46-5.46-5.46H43.92z"/>
		<path class="st0" d="M453.31,337.8h-193.1c-3.15,0-5.71-2.56-5.71-5.71V60.66c0-3.15,2.56-5.71,5.71-5.71h193.1
			c3.15,0,5.71,2.56,5.71,5.71v271.43C459.02,335.24,456.46,337.8,453.31,337.8z M260.21,55.2c-3.01,0-5.46,2.45-5.46,5.46v271.43
			c0,3.01,2.45,5.46,5.46,5.46h193.1c3.01,0,5.46-2.45,5.46-5.46V60.66c0-3.01-2.45-5.46-5.46-5.46H260.21z"/>
	</g>
	<g>
		<circle class="st1" cx="335.39" cy="148.29" r="41.55"/>
		<path class="st0" d="M409.55,140.1c0-3.74-3.03-6.77-6.77-6.77c-0.68,0-1.33,0.1-1.94,0.29c0.1-0.68,0.15-1.37,0.15-2.08
			c0-7.91-6.42-14.33-14.33-14.33c-0.9,0-1.78,0.09-2.64,0.25c-2.2-3.6-6.16-6.02-10.7-6.02c-6.86,0-12.43,5.51-12.53,12.35
			c-0.07,0-0.14-0.01-0.21-0.01c-6.38,0-11.54,5.17-11.54,11.54s5.17,11.54,11.54,11.54h42.39l-0.01-0.01
			C406.62,146.75,409.55,143.77,409.55,140.1z"/>
		<path class="st0" d="M302.61,177.34c0-3.74-3.03-6.77-6.77-6.77c-0.68,0-1.33,0.1-1.94,0.29c0.1-0.68,0.15-1.37,0.15-2.08
			c0-7.91-6.42-14.33-14.33-14.33c-0.9,0-1.78,0.09-2.64,0.25c-2.2-3.6-6.16-6.02-10.7-6.02c-6.86,0-12.43,5.51-12.53,12.35
			c-0.07,0-0.14-0.01-0.21-0.01c-6.38,0-11.54,5.17-11.54,11.54c0,6.38,5.17,11.54,11.54,11.54h42.39l-0.01-0.01
			C299.69,184,302.61,181.01,302.61,177.34z"/>
		<path class="st0" d="M115.95,190.15c0-3.74-3.03-6.77-6.77-6.77c-0.68,0-1.33,0.1-1.94,0.29c0.1-0.68,0.15-1.37,0.15-2.08
			c0-7.91-6.42-14.33-14.33-14.33c-0.9,0-1.78,0.09-2.64,0.25c-2.2-3.6-6.16-6.02-10.7-6.02c-6.86,0-12.43,5.51-12.53,12.35
			c-0.07,0-0.14-0.01-0.21-0.01c-6.38,0-11.54,5.17-11.54,11.54c0,6.38,5.17,11.54,11.54,11.54h42.39l-0.01-0.01
			C113.03,196.8,115.95,193.82,115.95,190.15z"/>
		<path class="st0" d="M405.64,222.44c0-2.26-1.83-4.09-4.09-4.09c-0.41,0-0.8,0.06-1.17,0.17c0.06-0.41,0.09-0.83,0.09-1.26
			c0-4.78-3.88-8.66-8.66-8.66c-0.55,0-1.08,0.05-1.6,0.15c-1.33-2.18-3.72-3.64-6.46-3.64c-4.15,0-7.51,3.33-7.57,7.46
			c-0.04,0-0.08-0.01-0.13-0.01c-3.85,0-6.98,3.12-6.98,6.98s3.12,6.98,6.98,6.98h25.62l-0.01-0.01
			C403.87,226.46,405.64,224.66,405.64,222.44z"/>
		<path class="st0" d="M158.43,90.91c0-2.26-1.83-4.09-4.09-4.09c-0.41,0-0.8,0.06-1.17,0.17c0.06-0.41,0.09-0.83,0.09-1.26
			c0-4.78-3.88-8.66-8.66-8.66c-0.55,0-1.08,0.05-1.6,0.15c-1.33-2.18-3.72-3.64-6.46-3.64c-4.15,0-7.51,3.33-7.57,7.46
			c-0.04,0-0.08-0.01-0.13-0.01c-3.85,0-6.98,3.12-6.98,6.98c0,3.85,3.12,6.98,6.98,6.98h25.62L154.46,95
			C156.66,94.94,158.43,93.13,158.43,90.91z"/>
		<polygon class="st0" points="89.86,243.66 116.94,366.67 121.86,364.36 93.42,242.97 		"/>
		<g>
			<g>
				<path class="st2" d="M400.78,366.08c0,0-16.74-115.58,20.95-235.12l-5.91-4.56c0,0-44.16,90.4-37.73,242.92L400.78,366.08z"/>
			</g>
			<g>
				<path class="st3" d="M431.98,99.58c13.82-9.05,34.27,5.36,37.07,27.87c0,0-2.38-1.47-6.34-3.01c-1.07-5.66-2.1-10.68-2.1-10.68
					l0.73,10.17c-1.21-0.43-2.54-0.86-3.98-1.25l-0.96-5.47l-0.45,5.11c-1.84-0.45-3.84-0.81-5.94-1.05l-2.58-15.97l-1.34,15.69
					c-1.98-0.05-4.03,0.02-6.13,0.27l-1.58-10.86l-0.01,11.08c-1.7,0.27-3.43,0.67-5.18,1.2l-1.89-16.21c0,0,0.06,9.11-0.05,16.84
					c-4.43,1.59-8.94,4.08-13.34,7.85l-0.14-2C417.77,129.15,419.37,107.84,431.98,99.58z"/>
				<path class="st3" d="M412.89,92.34c-10.97-12.35-34.48-3.79-43.07,17.21c0,0,2.69-0.8,6.91-1.25c2.51-5.19,4.82-9.76,4.82-9.76
					l-3.37,9.62c1.29-0.1,2.68-0.17,4.17-0.17l2.35-5.03l-0.9,5.05c1.9,0.05,3.92,0.22,6.01,0.54l6.66-14.74l-2.81,15.49
					c1.92,0.46,3.88,1.08,5.85,1.87l4.37-10.07l-2.88,10.7c1.57,0.71,3.14,1.54,4.69,2.51l6.06-15.15c0,0-2.44,8.78-4.36,16.26
					c3.86,2.69,7.56,6.28,10.83,11.07l0.66-1.89C418.88,124.6,422.9,103.62,412.89,92.34z"/>
				<path class="st3" d="M402.32,121.63c11-10.74,19.26-1.39,19.26-1.39c-4.13,1.07-7.81,3.72-11.03,7.09l-1.49-1.94l0.24,3.31
					c-0.77,0.88-1.5,1.8-2.21,2.75l-2.52-5.73l1.07,7.76c-1.01,1.49-1.95,3.01-2.82,4.53l-1.11-5.69l0.08,7.54
					c-0.92,1.7-1.74,3.37-2.47,4.94l-1.2-10.43l-0.16,13.48c-1.76,4.16-2.67,7.08-2.67,7.08S391.32,132.37,402.32,121.63z"/>
				<path class="st3" d="M432.01,146.99l-2.27,1.31c-0.33-1.75-0.71-3.58-1.15-5.44l1.55-2.83l-1.94,1.2
					c-0.16-0.62-0.32-1.23-0.48-1.85l1.98-5.54l-2.96,2.21c-1.6-4.99-3.64-9.39-6.2-11.49c0,0,25.23,8.06,10.97,35.25
					c0,0-0.46-4.31-1.47-9.96L432.01,146.99z"/>
				<path class="st3" d="M407.2,124.75l-4.03-7.6l1.66,7.91c-0.4,0.07-0.81,0.14-1.22,0.22l-5.23-6.51l1.29,7.49
					c-1.68,0.51-3.43,1.14-5.25,1.94c-1.85,0.81-3.67,1.74-5.45,2.75l-2.55-6.65l1.19,7.44c-1.73,1.03-3.41,2.13-5.03,3.27
					l-1.27-5.86l0.12,6.68c-1.98,1.43-3.85,2.9-5.58,4.32l0.16-10.62l-1.54,11.79c-1.77,1.51-3.35,2.95-4.7,4.22l-0.2-7.37
					l-1.86,9.35c-1.95,1.93-3.06,3.16-3.06,3.16c1.01-25.79,11-36.03,27.54-38.8c16.54-2.76,28.46,14.41,28.46,14.41
					S415.58,123.91,407.2,124.75z"/>
				<path class="st3" d="M455.44,156.27l-1.51,7.69c-0.72-1.91-1.72-4.36-2.96-7.09l1.35-11.25l-2.48,8.87
					c-1.82-3.73-4.07-7.8-6.72-11.6l2.35-7.8l-3.82,5.79c-0.76-1-1.55-1.98-2.38-2.92l1.34-4.91l-2.07,4.1
					c-0.56-0.61-1.14-1.2-1.73-1.77l1.62-6.55l-2.58,5.66c-1.67-1.5-3.44-2.8-5.3-3.82l2.63-8.01c0,0-1.85,3.26-4.12,7.26
					c-2.59-1.19-5.36-1.83-8.29-1.73c0,0,4.97-7.99,14.19-10.75c9.22-2.76,29,13.89,20.4,50.6c0,0-0.26-0.84-0.77-2.26
					L455.44,156.27z"/>
				<path class="st3" d="M440.28,84.94l1.57,4.66c-0.51,0.03-1.09,0.1-1.72,0.24l-1.89-6.06l1.26,6.23c-1.02,0.3-2.17,0.78-3.4,1.55
					l-2.61-8.19l1.53,8.93c-0.41,0.31-0.84,0.65-1.26,1.02l-2.94-7.69l2.22,8.35c-1.78,1.72-3.65,4.09-5.51,7.34l-0.81-11.27
					l-1.3,15.39c-1.82,3.93-3.59,8.83-5.2,14.91c0,0-1.6-40.96,8.27-45.6c9.87-4.64,15.74,15.08,15.74,15.08s-0.49-0.17-1.35-0.22
					L440.28,84.94z"/>
				<path class="st3" d="M426.18,130.55l-0.88,7.77l-2.96-7.49l-4.02,5.87l-1.57-5.46l-4.63,3.88c0,0,0.57-9.91,3.52-14.44
					C418.6,116.14,427.43,119.32,426.18,130.55z"/>
			</g>
		</g>
		<g>
			<path class="st0" d="M303.01,255.49v-54.18c0,0-10.99,11.67-18.28,10.09c-7.29-1.58-16.78,3.93-16.78,3.93s9.54-1.39,13.08,2.48
				c3.54,3.87,19.34,4.28,19.34,4.28v35.38L303.01,255.49z"/>
			<polygon class="st3" points="351.5,238.88 349,238.88 349,242.29 340.76,242.29 340.76,238.88 332.66,238.88 332.66,242.29 
				324.42,242.29 324.42,238.88 316.33,238.88 316.33,242.29 308.08,242.29 308.08,238.88 299.99,238.88 299.99,242.29 
				291.75,242.29 291.75,238.88 283.65,238.88 283.65,242.29 275.41,242.29 275.41,238.88 267.31,238.88 267.31,242.29 
				259.07,242.29 259.07,238.88 256.3,238.88 248.27,303.08 359.8,302.61 			"/>
			<polygon class="st0" points="369.24,285.48 365.82,285.48 365.82,290.16 354.49,290.16 354.49,285.48 343.37,285.48 
				343.37,290.16 332.04,290.16 332.04,285.48 320.92,285.48 320.92,290.16 309.6,290.16 309.6,285.48 298.48,285.48 298.48,290.16 
				287.15,290.16 287.15,285.48 276.03,285.48 276.03,290.16 264.7,290.16 264.7,285.48 253.58,285.48 253.58,290.16 242.26,290.16 
				242.26,285.48 238.45,285.48 227.41,373.69 380.66,373.05 			"/>
		</g>
		<path class="st1" d="M425.85,363.3c-2.36-2.67-4.6-5.4-7.07-7.97c-0.22-0.22-0.32-0.35-0.36-0.42c-0.81-0.54-1.67-0.98-2.55-1.41
			c-0.16-0.05-0.67-0.26-1.21-0.46c-0.99-0.36-1.98-0.76-2.96-1.15c-6.22-2.5-11.8-5.4-16.48-10.33c-2.57-2.7-4.62-5.86-7.28-8.47
			c-0.06,0.09-0.59-0.19-0.84-0.4c-0.79-0.09-1.86-0.25-2.01-0.25c-1.07-0.02-2.15,0.02-3.22,0.07c-1.53,0.07-3.06,0.19-4.59,0.33
			c-5.96,8.72-13.49,20.63-16.82,22.2c-5.15,2.44-52.61,14.97-56.11,14.23c-3.5-0.74-21.82,0.74-26.42,0.57
			c-4.6-0.17-12.93-2.21-24.99-7.76c-12.06-5.54-18.65-5.58-33.18-10.21c-14.53-4.63-24.27-6.39-32.77,0.73
			c-8.5,7.12-31.85-7.91-39.13-10.05c-7.28-2.14-21.21-14.47-30.71-8.72s-17.4,8.49-29.27,18.77
			c-11.87,10.29-35.42,30.15-35.42,30.15h400.96l-4.6-8.05C439.94,374.21,431.84,370.08,425.85,363.3z"/>
		<path class="st3" d="M43.18,265c0,0,11.67-20.97,43.3-39.12c0,0,25.74-2.19,54.79,10.47c0,0,5.89,9.79-0.8,13.64
			c-6.69,3.86-12.25-3.9-12.25-3.9s-1.24,11.82-9.97,12.16c-8.73,0.34-11.3-8.26-11.3-8.26s-0.86,10.85-11.28,13.59
			c-9.05,2.38-14.68-5.33-14.68-5.33s-1.8,8.91-9.91,11.49c-6.52,2.07-10.99-3.54-10.99-3.54s-1.87,9.67-8.79,9.67
			C45.35,275.88,43.18,265,43.18,265z"/>
	</g>
</g>
<g id="Background_Simple" class="st4">
	<g class="st5">
		<path class="st6" d="M302.23,76.25c16.53-5.47,35.06-5.6,54.93,1.93c41.49,15.73,59.83,63.77,57.75,105.29
			c-2.1,41.92-25.46,81.62-66.83,94.83c-21.43,6.84-44.58,6.23-66.83,2.91c-13.23-1.98-26.96-4.86-39.74-0.93
			c-21.07,6.48-31.45,27.59-46.3,42.03c-30.01,29.19-78.03,25.5-107.18-3.17c-15.84-15.58-25.41-37.73-23.29-60.1
			c4.45-47.04,49.15-64.27,90.96-61.7c29.89,1.83,64.48,0.65,73.72-33.76C239.67,125.38,266.2,88.16,302.23,76.25z"/>
		<path class="st7" d="M302.23,76.25c16.53-5.47,35.06-5.6,54.93,1.93c41.49,15.73,59.83,63.77,57.75,105.29
			c-2.1,41.92-25.46,81.62-66.83,94.83c-21.43,6.84-44.58,6.23-66.83,2.91c-13.23-1.98-26.96-4.86-39.74-0.93
			c-21.07,6.48-31.45,27.59-46.3,42.03c-30.01,29.19-78.03,25.5-107.18-3.17c-15.84-15.58-25.41-37.73-23.29-60.1
			c4.45-47.04,49.15-64.27,90.96-61.7c29.89,1.83,64.48,0.65,73.72-33.76C239.67,125.38,266.2,88.16,302.23,76.25z"/>
	</g>
</g>
<g id="Shadow_1_">
	<ellipse id="_x3C_Path_x3E__359_" class="st1" cx="250" cy="416.24" rx="193.89" ry="11.32"/>
</g>
<g id="Sand">
	<g>
		<g>
			<path class="st6" d="M383.99,366.91c0,0,4.35-6.37,8.31-8.15c3.96-1.78,4.61-8.54,6.75-8.92c2.15-0.38,4.52,5.88,8.28,7.69
				c3.76,1.82,9.45,9.34,9.45,9.34L383.99,366.91z"/>
			<path class="st8" d="M383.99,366.91c0,0,4.35-6.37,8.31-8.15c3.96-1.78,4.61-8.54,6.75-8.92c2.15-0.38,4.52,5.88,8.28,7.69
				c3.76,1.82,9.45,9.34,9.45,9.34L383.99,366.91z"/>
			<polygon class="st6" points="415.62,412.77 383.98,412.77 379.98,366.87 419.62,366.87 			"/>
			<rect x="378.06" y="364.49" class="st6" width="43.47" height="4.83"/>
			<rect x="378.06" y="364.49" class="st9" width="43.47" height="4.83"/>
			<path class="st10" d="M397.93,367.89c2.89,4.52,15.21,23.18,22.85,24.53l0.94-2.26c0,0-6.85,0.82-21.97-23.41
				c-0.3-0.48-0.93-0.66-1.43-0.39l0,0C397.77,366.66,397.59,367.36,397.93,367.89z"/>
		</g>
		<g>
			<path class="st6" d="M352.91,353.41L352.91,353.41c1.37-0.43,2.82,0.35,3.21,1.73l5.41,18.89l7.03-2.81
				c0,0,4.23,15.75-3.76,18.24c-7.81,2.43-13.85-12.11-13.85-12.11l7.14-1.98l-6.82-18.66
				C350.78,355.35,351.52,353.84,352.91,353.41z"/>
			<path class="st11" d="M364.8,389.46c-7.81,2.43-13.84-12.11-13.84-12.11l7.14-1.97c0,0,1.23,2.1,2.61,1.58
				c1.39-0.53,0.82-2.93,0.82-2.93l7.03-2.81C368.56,371.22,372.79,386.97,364.8,389.46z"/>
		</g>
		<g>
			<path class="st6" d="M424.67,416.65c-3.93-1.95-7.95-3.79-9.23-3.88c-2.77-0.18-4.35-1.41-6.33-3.77
				c-1.98-2.35-2.77-5.07-6.33-8.85c-3.56-3.78,0.4-5.3-7.12-6.27c-7.52-0.97-4.62-0.36-9.23-3.68c-4.62-3.33-3.69-3.33-9.1-5.7
				c-5.41-2.37-2.25-3.28-8.58-3.82c-4.37-0.37-11.29,1.93-14.87,4.49c-1.59,1.14-2.41,3.02-3.97,4.02
				c-1.77,1.12-4.52-0.96-4.23,2.8c0.08,0.99,0.36,1.99,0.13,2.95c-0.51,2.14-9.32,2.14-11.56,2.8c-0.52,0.15-1.08,0.35-1.34,0.82
				c-0.51,0.91,0.26,2.52-0.73,2.85c-0.31,0.1-0.65-0.01-0.97,0.05c-1.19,0.23-0.88,2.37-1.99,2.86c-1.06,0.47-2.41-0.51-3.65-0.04
				c-0.96,0.36-1.27,1.64-2.1,2.15c-1.45,0.88-2.95,1.53-4.38,2.47c-2.48,1.63-4.63,3.62-7.29,5.05l-7.12,1.95l-2.13,0.75H424.67z"
				/>
			<path class="st8" d="M424.67,416.65c-3.93-1.95-7.95-3.79-9.23-3.88c-2.77-0.18-4.35-1.41-6.33-3.77
				c-1.98-2.35-2.77-5.07-6.33-8.85c-3.56-3.78,0.4-5.3-7.12-6.27c-7.52-0.97-4.62-0.36-9.23-3.68c-4.62-3.33-3.69-3.33-9.1-5.7
				c-5.41-2.37-2.25-3.28-8.58-3.82c-4.37-0.37-11.29,1.93-14.87,4.49c-1.59,1.14-2.41,3.02-3.97,4.02
				c-1.77,1.12-4.52-0.96-4.23,2.8c0.08,0.99,0.36,1.99,0.13,2.95c-0.51,2.14-9.32,2.14-11.56,2.8c-0.52,0.15-1.08,0.35-1.34,0.82
				c-0.51,0.91,0.26,2.52-0.73,2.85c-0.31,0.1-0.65-0.01-0.97,0.05c-1.19,0.23-0.88,2.37-1.99,2.86c-1.06,0.47-2.41-0.51-3.65-0.04
				c-0.96,0.36-1.27,1.64-2.1,2.15c-1.45,0.88-2.95,1.53-4.38,2.47c-2.48,1.63-4.63,3.62-7.29,5.05l-7.12,1.95l-2.13,0.75H424.67z"
				/>
		</g>
		<g>
			<path class="st6" d="M340.75,398.45c0,0.08,0,0.14-0.01,0.22v0.01c-0.04,3.51-1.07,6.79-2.84,9.55c-0.15,0.23-0.3,0.46-0.47,0.69
				c-1.05,1.49-2.32,2.82-3.76,3.93c-0.33,0.26-0.67,0.51-1.02,0.73h-0.01c-0.08,0.06-0.17,0.12-0.25,0.16
				c-0.11,0.08-0.22,0.14-0.33,0.21c-0.17,0.12-0.35,0.22-0.53,0.32c-0.28,0.16-0.57,0.32-0.86,0.46h-0.01
				c-2.44,1.23-5.19,1.92-8.11,1.92c-5.18,0-9.86-2.17-13.16-5.64c-1.22-1.26-2.25-2.7-3.05-4.27c-1.28-2.49-2-5.31-2-8.29v-0.06
				c0-0.51,0.02-1.02,0.07-1.52c0.2-2.41,0.88-4.68,1.93-6.72c0.27-0.53,0.56-1.04,0.88-1.53c1.05-1.63,2.35-3.08,3.84-4.3
				c0.48-0.39,0.97-0.75,1.49-1.08c0.18-0.13,0.37-0.25,0.56-0.36c1.42-0.87,2.96-1.54,4.6-1.99c0.14-0.04,0.28-0.08,0.42-0.11
				c1.41-0.35,2.89-0.54,4.42-0.54c0.47,0,0.93,0.02,1.38,0.06c0.12,0,0.23,0.01,0.35,0.02h0.01c2.07,0.2,4.03,0.74,5.84,1.58
				c0.07,0.03,0.15,0.07,0.23,0.11c1.56,0.74,2.99,1.69,4.27,2.82c3.18,2.83,5.37,6.77,5.96,11.21v0.03
				C340.7,396.85,340.75,397.64,340.75,398.45z"/>
			<path class="st12" d="M340.75,398.45c0,7.13-4.1,13.31-10.08,16.28c-0.01,0.01-0.01,0-0.01,0c-0.72-0.6-1-1.23-1-1.23
				c3.36-9.8,0-15.05,0-15.05l0.01-0.1l0.24-1.57l0.05-0.29c0.52-2.91,1.83-8.36,4.67-11.66
				C338.38,388.16,340.75,393.03,340.75,398.45z"/>
			<path class="st12" d="M308.59,395.3c0,0-3.19,3.19-2.25,11.44c-1.28-2.49-2-5.31-2-8.29c0-5.7,2.62-10.79,6.72-14.13
				C309.3,387.71,308.37,391.79,308.59,395.3z"/>
			<path class="st9" d="M334.63,384.83c-4,4.64-4.97,13.62-4.97,13.62c-10.98,2.69-21.07-3.15-21.07-3.15
				c-0.22-3.51,0.72-7.59,2.47-10.98c3.14-2.55,7.13-4.08,11.49-4.08C327.19,380.24,331.41,381.98,334.63,384.83z"/>
			<path class="st9" d="M330.66,414.73c-2.44,1.23-5.19,1.92-8.11,1.92c-5.18,0-9.86-2.17-13.16-5.64
				c3.41,2.03,10.38,4.87,20.27,2.49C329.66,413.5,329.94,414.13,330.66,414.73z"/>
			<g class="st13">
				<path d="M330.36,382.01c-0.48,0.67-0.91,1.36-1.31,2.08c-0.74,1.38-1.38,2.81-1.91,4.28c-0.56,1.47-0.99,2.98-1.4,4.49
					c-0.39,1.52-0.74,3.06-1.03,4.61c0.09-1.58,0.34-3.14,0.66-4.69c0.33-1.55,0.78-3.08,1.3-4.58c0.58-1.48,1.22-2.94,2.04-4.3
					c0.44-0.69,0.91-1.37,1.42-2C330.2,381.93,330.28,381.97,330.36,382.01z"/>
				<path d="M324.28,380.32c-0.25,0.45-0.48,0.91-0.7,1.37c-0.74,1.54-1.33,3.16-1.81,4.81c-0.53,1.64-0.93,3.32-1.31,5
					c-0.37,1.68-0.7,3.38-0.99,5.08c0.09-1.73,0.32-3.45,0.62-5.16c0.29-1.71,0.71-3.4,1.2-5.06c0.53-1.66,1.12-3.31,1.95-4.85
					c0.22-0.41,0.45-0.82,0.69-1.21C324.05,380.3,324.16,380.31,324.28,380.32z"/>
				<path d="M318.13,380.78c-0.1,0.27-0.21,0.54-0.31,0.81c-0.55,1.48-1,3-1.35,4.55c-0.39,1.54-0.69,3.1-0.98,4.67
					c-0.28,1.57-0.53,3.14-0.76,4.72c0.02-1.6,0.18-3.19,0.39-4.78c0.2-1.59,0.51-3.16,0.87-4.72c0.38-1.56,0.84-3.1,1.47-4.59
					c0.08-0.18,0.16-0.37,0.25-0.55C317.85,380.85,317.99,380.81,318.13,380.78z"/>
				<path d="M313.11,382.88c-0.34,1.12-0.66,2.24-0.89,3.38c-0.29,1.27-0.5,2.56-0.7,3.85c-0.19,1.29-0.34,2.59-0.46,3.9
					c-0.08-1.31-0.03-2.63,0.08-3.94c0.12-1.31,0.33-2.62,0.59-3.91c0.23-0.99,0.49-1.96,0.82-2.92
					C312.73,383.11,312.92,382.99,313.11,382.88z"/>
				<path d="M334.78,404.52c0.02,1.87-0.16,3.77-0.73,5.57c-0.22,0.91-0.62,1.77-0.97,2.63c-0.13,0.29-0.28,0.58-0.43,0.86h-0.01
					c-0.08,0.06-0.17,0.12-0.25,0.16c0.53-1.22,1-2.46,1.29-3.75c0.48-1.78,0.66-3.63,0.6-5.46c-0.01-1.84-0.33-3.67-0.84-5.43
					c-0.52-1.77-1.25-3.49-2.2-5.09c1.13,1.49,1.96,3.2,2.56,4.97C334.41,400.76,334.73,402.64,334.78,404.52z"/>
				<path d="M338.37,404.01l-0.05,1.51l-0.21,1.5c-0.04,0.41-0.12,0.81-0.21,1.21c-0.15,0.23-0.3,0.46-0.47,0.69
					c0.13-0.65,0.27-1.29,0.3-1.95l0.15-1.48l0.03-1.48c0.03-0.5,0-0.99-0.04-1.49c-0.05-0.49-0.05-0.98-0.14-1.47
					c-0.2-1.97-0.75-3.89-1.47-5.73c-0.73-1.84-1.7-3.6-2.94-5.16c1.4,1.43,2.47,3.17,3.29,5.01c0.81,1.85,1.37,3.81,1.62,5.82
					c0.08,0.5,0.07,1,0.11,1.51C338.38,403,338.4,403.51,338.37,404.01z"/>
				<path d="M340.75,398.45c0,0.08,0,0.14-0.01,0.22c-0.02-0.11-0.04-0.23-0.06-0.34c-0.42-2.08-1.11-4.09-2.01-6.01
					c-0.91-1.91-2.02-3.75-3.46-5.33c1.57,1.46,2.82,3.25,3.8,5.16c0.64,1.25,1.16,2.55,1.58,3.89v0.03
					C340.7,396.85,340.75,397.64,340.75,398.45z"/>
				<path d="M307.7,392.42c-0.82,0.9-1.48,1.91-2.05,2.96c-0.52,0.97-0.96,1.97-1.31,3.01c0-0.51,0.02-1.02,0.07-1.52
					c0.27-0.58,0.57-1.14,0.91-1.68C305.97,394.15,306.74,393.17,307.7,392.42z"/>
				<path d="M308.56,387.58c-0.76,0.86-1.5,1.71-2.22,2.57c0.27-0.53,0.56-1.04,0.88-1.53C307.65,388.25,308.09,387.9,308.56,387.58
					z"/>
				<path d="M308.56,399.16c1.66,0.64,3.35,1.2,5.05,1.7c1.7,0.48,3.41,0.95,5.16,1.23c3.46,0.64,7.05,0.82,10.5-0.13
					c-1.66,0.67-3.45,0.97-5.24,1.05c-1.8,0.07-3.58-0.15-5.35-0.43c-1.76-0.33-3.49-0.79-5.18-1.36
					C311.8,400.64,310.14,399.99,308.56,399.16z"/>
				<path d="M308.56,403.51c1.68,0.67,3.39,1.23,5.13,1.68c1.74,0.45,3.5,0.81,5.28,1.01c1.77,0.26,3.57,0.31,5.36,0.25l1.34-0.06
					l1.34-0.16c0.9-0.06,1.77-0.32,2.66-0.45c-1.72,0.53-3.5,0.95-5.32,1.06c-1.81,0.13-3.64,0.08-5.44-0.14
					c-1.8-0.25-3.58-0.61-5.32-1.14C311.85,405.02,310.15,404.37,308.56,403.51z"/>
				<path d="M308.99,407.27c1.58,0.75,3.21,1.35,4.88,1.82c1.66,0.48,3.36,0.84,5.08,1.02c0.85,0.14,1.72,0.16,2.58,0.22
					c0.86-0.01,1.73,0.02,2.59-0.05c1.73-0.05,3.44-0.4,5.15-0.74c-1.65,0.55-3.36,0.99-5.12,1.13c-1.75,0.19-3.52,0.14-5.26-0.06
					c-1.74-0.23-3.47-0.59-5.13-1.15C312.09,408.89,310.47,408.19,308.99,407.27z"/>
				<path d="M309.75,410.1c1.49,0.69,3.03,1.26,4.59,1.71c1.57,0.45,3.16,0.8,4.78,0.98c1.61,0.24,3.24,0.26,4.86,0.16l1.22-0.09
					l1.21-0.2c0.82-0.09,1.59-0.36,2.4-0.52c-1.53,0.57-3.14,1.05-4.79,1.19c-1.64,0.19-3.31,0.16-4.96-0.04
					c-1.64-0.23-3.26-0.58-4.83-1.11C312.66,411.64,311.14,410.98,309.75,410.1z"/>
			</g>
		</g>
	</g>
</g>
<g id="Travel_bag">
	<g>
		<path class="st10" d="M113.79,369.84c0,0,3.56-5.34,9.89-5.74c6.33-0.4,11.67,7.68,11.67,7.68h-2.01c0,0-5.11-5.5-8.77-5.5
			c-3.66,0-7.22,4.55-7.22,4.55L113.79,369.84z"/>
		<g>
			<path class="st10" d="M60.08,412.06c2.19-3.65,26.72-1.28,32.26-3.46l2.97,5.15c0,0-4.23,2.35-11.25,1.52s-17.63-1.05-20.4,1.39
				L60.08,412.06z"/>
			<path class="st14" d="M60.08,412.06c2.19-3.65,26.72-1.28,32.26-3.46l2.97,5.15c0,0-4.23,2.35-11.25,1.52s-17.63-1.05-20.4,1.39
				L60.08,412.06z"/>
		</g>
		<path class="st10" d="M163.4,400.93c-0.2,0.87-0.42,1.72-0.67,2.55c-1.97,6.81-5.08,12.32-7.32,13.17H91.82
			c-1.8,0-3.46-0.84-4.53-2.22c-0.01-0.02-0.03-0.04-0.05-0.07c-0.23-0.3-0.43-0.62-0.59-0.97c-4.39-9.17-8.82-27.51-2.59-35.87
			c0.65-0.87,1.4-1.66,2.24-2.36c0.06-0.05,0.12-0.1,0.18-0.14c1.27-1.06,2.74-1.93,4.34-2.65c0.01,0,0.01-0.01,0.02-0.01
			c0.01,0,0.02-0.01,0.03-0.01c4.38-1.98,9.76-2.89,15.04-3.28c1.53-0.12,3.05-0.19,4.54-0.22c3.9-0.11,7.54-0.01,10.44,0.07
			c10.22,0.26,18.26,3.3,23.74,2.77c2.17-0.21,4.15-0.04,6.04,0.48c0.56,0.16,1.11,0.34,1.66,0.56c2.29,0.9,4.5,2.32,6.88,4.23
			C165.39,381.92,165.48,392.11,163.4,400.93z"/>
		<path class="st15" d="M163.4,400.93c-0.2,0.87-0.42,1.72-0.67,2.55c-1.97,6.81-5.08,12.32-7.32,13.17H91.82
			c-1.8,0-3.46-0.84-4.53-2.22c-0.01-0.02-0.03-0.04-0.05-0.07c-0.23-0.3-0.43-0.62-0.59-0.97c-4.39-9.17-8.82-27.51-2.59-35.87
			c0.65-0.87,1.4-1.66,2.24-2.36c0.06-0.05,0.12-0.1,0.18-0.14c1.27-1.06,2.74-1.93,4.34-2.65c0.01,0,0.01-0.01,0.02-0.01
			c0.01,0,0.02-0.01,0.03-0.01c4.38-1.98,9.76-2.89,15.04-3.28c1.53-0.12,3.05-0.19,4.54-0.22c3.9-0.11,7.54-0.01,10.44,0.07
			c10.22,0.26,18.26,3.3,23.74,2.77c2.17-0.21,4.15-0.04,6.04,0.48c0.56,0.16,1.11,0.34,1.66,0.56c2.29,0.9,4.5,2.32,6.88,4.23
			C165.39,381.92,165.48,392.11,163.4,400.93z"/>
		<g>
			<path class="st13" d="M153.66,400.3c-4.55,0-13.65,2.17-27.1-0.79c-8.74-1.93-15.45-1.02-19.09-0.14
				c-0.14-2.03-0.31-4.23-0.49-6.65c-1.19-16.25-10.46-23.07-16.11-20.37c-0.01,0-0.02,0.01-0.03,0.01c-0.01,0-0.01,0.01-0.02,0.01
				c-1.65,0.8-3.09,1.69-4.34,2.65c-0.06,0.04-0.12,0.09-0.18,0.14c-0.84,0.7-1.59,1.49-2.24,2.36c-6.23,8.36-1.8,26.7,2.59,35.87
				c0.16,0.35,0.36,0.67,0.59,0.97c0.02,0.03,0.04,0.05,0.05,0.07c1.09,1.23,2.65,1.95,4.32,1.95h11.41c4.65,0,5.2-4.26,4.68-13.41
				c0.79-0.45,1.75-1.04,2.84-1.74c2.83-1.84,13.84-0.93,18.59,0.85s17.21,2.57,23.24,1.59c4.19-0.68,8.26-0.42,10.36-0.19
				c0.25-0.83,0.47-1.68,0.67-2.55C161.32,400.71,156.99,400.3,153.66,400.3z"/>
			<path class="st13" d="M112.32,377.35c2.77,10.09,4.67,13.65,5.4,14.64c0.73,0.99,20.87,3.38,24.65,3.37
				c3.77-0.01,10.24-0.58,13.04-1.28c2.57-0.65,3.4-13.59-3.08-21.35c-0.55-0.22-1.1-0.4-1.66-0.56c3.53,7.92,3.61,17.62,3.19,18.97
				c-0.6,1.92-6.53,1.64-9.3,1.58c-2.77-0.05-19.98-1.13-21.76-1.83c-1.79-0.71-2.77-1.67-4.15-3.45c-1.39-1.78-1.58-7.91-4.09-13.2
				c-0.91-1.9-2.48-3.77-4.11-5.39c-1.49,0.03-3.01,0.1-4.54,0.22C108.52,370.54,111.14,373.05,112.32,377.35z"/>
		</g>
		<path class="st10" d="M92.34,386.64l-5.54,1.39c0,0-3.93,11.27-1.58,16.02c2.35,4.75-16.04,11.29-25.14,8l3.58,4.59
			c0,0,21.76-1.37,25.91-9.65c4.15-8.28-1.78-9.56-2.18-11.89C87,392.78,92.34,386.64,92.34,386.64z"/>
		<path class="st15" d="M92.34,386.64l-5.54,1.39c0,0-3.93,11.27-1.58,16.02c2.35,4.75-16.04,11.29-25.14,8l3.58,4.59
			c0,0,21.76-1.37,25.91-9.65c4.15-8.28-1.78-9.56-2.18-11.89C87,392.78,92.34,386.64,92.34,386.64z"/>
	</g>
</g>
<g id="Character">
	<g>
		<g id="_x3C_Group_x3E__45_">
			<path class="st16" d="M141.27,154.02c0,0-21.4-11.97-25.83-15.08c-4.43-3.1-28.13-26.35-29.45-27.02c0,0,0.89-2.66-1.11-4.21
				c-1.99-1.55-9.74-6.64-10.85-6.64s-3.99,10.85-3.54,13.51c0.44,2.66,11.29,3.32,11.29,3.32s22.59,26.3,26.13,29.98
				c3.54,3.68,27.68,19.4,27.68,19.4L141.27,154.02z"/>
			<g>
				<path class="st6" d="M150.05,156.21c0,0,4.69,9.48-6.7,24.51l-25.11-18.46l10.02-18.15L150.05,156.21z"/>
				<path class="st12" d="M143.35,180.72L131.49,172l-1.55-1.14l-6.69-4.91l-5.01-3.69l3.69-6.67l2.09-3.79l4.25-7.69l4.1,2.28
					l3.54,1.96l14.14,7.86c0,0,0.6,1.21,0.85,3.45C151.35,163.69,150.67,171.05,143.35,180.72z"/>
				<path class="st13" d="M143.35,180.72L131.49,172c4.07-8.42,14.6-11.39,19.41-12.34C151.35,163.69,150.67,171.05,143.35,180.72z"
					/>
				<g class="st17">
					<polygon class="st18" points="135.91,148.35 132.37,150.41 132.37,146.39 					"/>
					<polygon class="st18" points="128.21,153.04 123.77,159.27 121.93,155.59 124.02,151.8 					"/>
					<polygon class="st18" points="131.49,162.41 129.94,170.86 123.25,165.95 					"/>
					<polygon class="st18" points="134.56,157.59 137.03,163.92 142.16,156.95 					"/>
				</g>
			</g>
			<path class="st16" d="M196.72,151.73c0,0,21.4-11.98,25.83-15.08c4.43-3.1,28.13-26.35,29.45-27.02c0,0-0.89-2.66,1.11-4.21
				c1.99-1.55,9.74-6.64,10.85-6.64s3.99,10.85,3.54,13.51c-0.44,2.66-11.29,3.32-11.29,3.32s-22.59,26.3-26.13,29.98
				c-3.54,3.68-27.68,19.4-27.68,19.4L196.72,151.73z"/>
			<path class="st16" d="M171.15,278.45c0,0-0.46,7.57-1.19,17.65c-0.46,6.28-1.03,13.53-1.65,20.54
				c-0.84,9.42-1.79,18.4-2.74,23.98c-0.87,5.13-12.42,68.84-12.42,68.84h-7.74c2.44-59.41,6.22-82.45,6.36-85.91
				c0.05-1.13,0.09-2.7,0.14-4.57c0.15-6.78,0.28-17.49,0.36-25.28c0.06-5.62,0.09-9.71,0.09-9.71L171.15,278.45z"/>
			<path class="st16" d="M201.02,326.52c-0.27,5.19-3.36,82.68-3.36,82.68h-8.51c-4.35-61.72-2.7-83.15-3.48-87.43
				c0-0.02-0.01-0.03-0.01-0.05c-1.33-7.28-2.58-16.85-3.44-23.95c-0.69-5.71-1.12-9.82-1.12-9.82l17.35-7.5
				c0,0,1.05,8.96,1.84,19.78c0.39,5.4,0.73,11.27,0.83,16.73C201.19,320.38,201.17,323.64,201.02,326.52z"/>
			<path class="st13" d="M152.27,293.7l17.69,2.4c-0.46,6.28-1.03,13.53-1.65,20.54l-16.4,2.34
				C152.06,312.2,152.19,301.49,152.27,293.7z"/>
			<path class="st13" d="M201.12,316.96l-15.46,4.76c-1.33-7.28-2.58-16.85-3.44-23.95l18.07,2.46
				C200.68,305.63,201.02,311.5,201.12,316.96z"/>
			<path class="st6" d="M154.98,407.08h-10.21c-0.34,0-0.64,0.24-0.72,0.58l-1.66,7.48c-0.14,0.67,0.29,1.33,0.96,1.47
				c0.09,0.02,0.18,0.03,0.27,0.03c3.3-0.05,5.71-0.26,9.86-0.26c2.55,0,10.26,0.27,13.79,0.27c3.53,0,3.99-3.48,2.54-3.81
				c-6.48-1.41-11.35-3.37-13.43-5.23C156.01,407.26,155.5,407.07,154.98,407.08z"/>
			<path class="st6" d="M198.28,406.82h-10.21c-0.34,0-0.64,0.24-0.72,0.58l-1.66,7.48c-0.14,0.67,0.29,1.33,0.96,1.47
				c0.09,0.02,0.18,0.03,0.27,0.03c3.3-0.05,5.71-0.26,9.86-0.26c2.55,0,10.26,0.27,13.79,0.27c3.53,0,3.99-3.48,2.54-3.81
				c-6.48-1.41-11.35-3.37-13.43-5.23C199.3,407,198.8,406.81,198.28,406.82z"/>
			<path class="st10" d="M171.85,312.27c0.08-0.68,0.16-1.4,0.24-2.19c1.04-10.24,2.1-22.53,3.04-34.38
				c3.46,9.29,4.94,22.34,6.74,36.57h21.01c-1.73-36.84-6.29-66.79-8.71-79.57h-44.6c-0.05,4.58-0.56,49-1.71,79.57H171.85z"/>
			<path class="st9" d="M171.85,312.27c0.08-0.68,0.16-1.4,0.24-2.19c1.04-10.24,2.1-22.53,3.04-34.38
				c3.46,9.29,4.94,22.34,6.74,36.57h21.01c-1.73-36.84-6.29-66.79-8.71-79.57h-44.6c-0.05,4.58-0.56,49-1.71,79.57H171.85z"/>
			<g>
				<path class="st16" d="M177.97,141.49c-0.1,0.41-0.22,0.81-0.36,1.19c-0.82,2.31-2.31,4.21-4.16,5.54
					c-0.48,0.35-0.99,0.67-1.52,0.94c-2.79,1.44-6.11,1.71-9.1,0.4c-1.23-0.52-2.41-1.32-3.48-2.4c-4.21-4.25-4.1-9.16-4.57-17.47
					c-0.13-1.79,0.15-3.58,0.85-5.23c2.41-5.81,9.08-8.55,14.88-6.14C178.65,121.64,179.77,134.01,177.97,141.49z"/>
				<path class="st13" d="M173.45,148.22c-0.48,0.35-0.99,0.67-1.52,0.94c-2.79,1.44-6.11,1.71-9.1,0.4
					c0.58-1.61,1.49-2.82,1.49-2.82S169.27,145.98,173.45,148.22z"/>
				<path class="st16" d="M156.72,159c4.09,3.72,14.13,2.34,14.13,2.34s6.26-1.71,4.95-3.67c-3.69-0.61-5.47-2.33-6.21-4.53
					c-0.43-1.28-0.49-2.73-0.37-4.21c0.05-0.78,0.17-1.57,0.31-2.35l-12.4-9.18C158.74,143.46,160.73,154.61,156.72,159z"/>
				<path class="st10" d="M173.45,133.93l1.79,0.68l-0.9-3.67c0,0,2.63-3.95,0-7.47c0,0,7.24-2.2,3.15-6.02
					c-1.52-1.42-3.41,0-8.41-2.18c-2.71-1.18-11.19-1.27-11.61,2.18c0,0-6.11-0.04-6.77,10.39c-0.66,10.43,6.47,16.44,6.47,16.44
					s7.37,1.75,10.96-1.21C171.72,140.1,173.45,133.93,173.45,133.93z"/>
				<path class="st16" d="M168.73,134.52c0.5,1.81,1.49,3.14,2.77,3.69c1.69,0.72,2.8-1.67,2.56-4.17
					c-0.23-2.21-1.38-5.33-3.19-4.92C169.05,129.54,168.14,132.28,168.73,134.52z"/>
			</g>
			<path class="st13" d="M175.13,275.66c-0.94,11.84-2,24.16-3.04,34.4c-1.52-14.78-3.38-25.33-3.38-25.33s-1.74-1.43-6.53-9.08
				c-4.79-7.65,0-21.91,0-21.91C162.03,267,175.13,275.66,175.13,275.66z"/>
			<polygon class="st6" points="204.38,310.54 203.46,314.01 181.1,314.01 181.1,310.8 			"/>
			<polygon class="st6" points="172.93,311.02 172.27,314.23 146.94,314.23 145.41,311.02 			"/>
			<g>
				<path class="st6" d="M176.05,156.59c0,0-3.64-5.75-12.81-6.17c-9.17-0.41-9.87,5.9-9.87,5.9L176.05,156.59z"/>
				<path class="st19" d="M176.05,156.59c0,0-3.64-5.75-12.81-6.17c-9.17-0.41-9.87,5.9-9.87,5.9L176.05,156.59z"/>
			</g>
			<path class="st6" d="M143.12,153.04c0,0,4.73,42.71-0.96,93.53l53.73-3.28c-0.61-54.84-7.95-89.37-7.95-89.37
				s-13.86,2.9-25.12,2.48C152.22,156.01,143.12,153.04,143.12,153.04z"/>
			<g>
				<path class="st6" d="M187.94,153.92c0,0,7.18,16.78,7.95,33.76c0.78,16.99-29.17,40.27-29.17,40.27s-23.07-15.88-40.87-14.44
					s-23.34,7.77-23.34,7.77s13.85-29.61,37.95-39.93c0,0-5-17.05,2.66-28.32C143.12,153.04,159.78,158.46,187.94,153.92z"/>
				<path class="st12" d="M195.89,187.68c0.02,0.47,0.02,0.95-0.01,1.44c-0.04,0.73-0.13,1.47-0.27,2.21
					c-0.29,1.65-0.82,3.34-1.53,5.04v0.01c-1.84,4.39-4.88,8.86-8.28,13.01c-1.7,2.08-3.5,4.08-5.28,5.94
					c-7.01,7.36-13.79,12.63-13.79,12.63s-8.54-5.88-19.23-10.15c-2.05-0.82-4.18-1.59-6.35-2.24h-0.01
					c-5.1-1.53-10.39-2.45-15.28-2.05c-6.25,0.51-10.99,1.61-14.51,2.84c-0.81,0.28-1.56,0.58-2.25,0.87
					c-0.21,0.09-0.42,0.18-0.62,0.27c-1.93,0.86-3.33,1.71-4.28,2.39c-0.15,0.1-0.29,0.21-0.42,0.31c-0.26,0.19-0.47,0.36-0.65,0.52
					c-0.09,0.07-0.17,0.14-0.24,0.21c-0.07,0.05-0.12,0.11-0.17,0.16c-0.05,0.05-0.09,0.09-0.12,0.12l-0.07,0.07
					c0.02-0.05,0.12-0.26,0.3-0.62c0.08-0.15,0.17-0.34,0.28-0.55c0.28-0.56,0.67-1.31,1.18-2.22c0.07-0.13,0.14-0.26,0.22-0.4
					c0.12-0.22,0.25-0.45,0.39-0.69c0.13-0.24,0.27-0.49,0.42-0.74c0.58-1.02,1.26-2.16,2.03-3.39c3.27-5.24,8.16-12.1,14.5-18.34
					l0.01-0.01c1.95-1.93,4.02-3.78,6.24-5.51c3.75-2.94,7.88-5.53,12.36-7.45c0,0-1.78-6.07-1.58-13.37
					c0.03-1.39,0.14-2.83,0.35-4.27c0.52-3.68,1.68-7.42,3.89-10.68c0,0,2.61,0.85,7.5,1.59c2.68,0.41,6.04,0.78,10.03,0.97
					c5.55,0.27,12.32,0.17,20.18-0.71c2.28-0.25,4.65-0.57,7.11-0.97c0,0,0.08,0.19,0.23,0.56c0.62,1.53,2.41,6.11,4.11,12.21
					c0.44,1.59,0.88,3.29,1.3,5.07c0.38,1.65,0.74,3.37,1.06,5.14v0.01C195.26,180.38,195.72,184.02,195.89,187.68z"/>
				<g class="st13">
					<path class="st18" d="M188.96,201.31l-3.16,8.08c-1.7,2.08-3.5,4.08-5.28,5.94l-6.43-12.04L188.96,201.31z"/>
					<path class="st18" d="M134.56,193.59l-12.7,0.73c1.95-1.93,4.02-3.78,6.24-5.51L134.56,193.59z"/>
					<path class="st18" d="M149.21,161.6l-1.36,13.2l-8.97-6.81c0.03-1.39,0.14-2.83,0.35-4.27L149.21,161.6z"/>
					<polygon class="st18" points="153.37,196.38 149.21,183.7 161.86,181.36 					"/>
					<polygon class="st18" points="175.13,184.3 175.13,193.79 184.21,190.53 					"/>
					<path class="st18" d="M151.77,211.79l-4.27,6.02c-2.05-0.82-4.18-1.59-6.35-2.24h-0.01l-3.22-7.34L151.77,211.79z"/>
					<polygon class="st18" points="119.33,202.69 125.86,205.46 119.33,209.91 					"/>
					<path class="st18" d="M111.35,216.36c-6.5,2.27-8.83,4.93-8.83,4.93s1.66-3.55,4.83-8.62L111.35,216.36z"/>
					<polygon class="st18" points="164.71,204.08 159.09,209.91 167.59,211.4 					"/>
					<polygon class="st18" points="164.71,167.48 171.32,176.38 176.05,166.3 					"/>
					<path class="st18" d="M194.64,176.9l-8.45-5.56l6.09-4.65C193.14,169.77,193.98,173.24,194.64,176.9z"/>
					<path class="st18" d="M195.88,189.12c-0.12,2.34-0.77,4.78-1.8,7.25l-3.54-8.71L195.88,189.12z"/>
					<path class="st18" d="M188.17,154.48l-5.35,5.49l-1.99-5.08c2.28-0.25,4.65-0.57,7.11-0.97
						C187.94,153.92,188.02,154.11,188.17,154.48z"/>
					<path class="st18" d="M160.65,155.6l-3.93,8.32l-6.1-9.29C153.3,155.04,156.66,155.41,160.65,155.6z"/>
				</g>
				<path class="st13" d="M195.89,187.68c0.02,0.47,0.02,0.95-0.01,1.44c-0.04,0.73-0.13,1.47-0.27,2.21
					c-6.98-11.1-5.34-21.14-5.34-21.14l3.31,1.57c0.38,1.65,0.74,3.37,1.06,5.14v0.01C195.26,180.38,195.72,184.02,195.89,187.68z"
					/>
			</g>
			<g>
				<path class="st6" d="M167.53,109.73c11.87-4.09,14.85,11.72,3.06,22.41c-11.79,10.69-25.33,11.97-26.86,6.58
					C142.19,133.33,149.41,115.96,167.53,109.73z"/>
				<path class="st6" d="M155.63,108.93c6.09-0.02,14.74,6.2,14.74,6.2s1.24,6.59-4.83,12.4c-6.07,5.8-11.53,6.73-14.93,4.48
					c-3.4-2.24-4.32-10.98-4.32-10.98s0.87-3.4,4.32-4.45C150.62,116.58,151.62,108.95,155.63,108.93z"/>
				<path class="st13" d="M165.55,127.53c-6.07,5.8-11.53,6.72-14.93,4.48c-0.56-0.37-1.05-0.91-1.48-1.56
					c-2.2-3.31-2.84-9.42-2.84-9.42c5.8,6.96,12.52-0.23,13.45-5.11c0.52-2.77-0.19-5.24-1.55-6.69c3.99,0.86,8.38,3.42,10.64,4.87
					c0.96,0.61,1.54,1.03,1.54,1.03S171.62,121.73,165.55,127.53z"/>
				<path class="st12" d="M165.55,127.53c-6.07,5.8-11.53,6.72-14.93,4.48c-0.56-0.37-1.05-0.91-1.48-1.56
					c6.08,1.81,13.32-1.2,17.21-6.61c2.55-3.55,2.83-7.1,2.49-9.74c0.96,0.61,1.54,1.03,1.54,1.03S171.62,121.73,165.55,127.53z"/>
			</g>
			<g>
				<path class="st6" d="M187.94,153.92c0,0-4.69,9.48,6.7,24.51l25.11-18.46l-10.02-18.15L187.94,153.92z"/>
				<path class="st12" d="M219.75,159.97l-6.55,4.81l-9.69,7.13l-8.87,6.52c-0.58-0.76-1.11-1.51-1.61-2.24
					c-1.1-1.62-2.01-3.17-2.76-4.64c-2.56-5-3.27-9.1-3.29-12.08c-0.02-3.58,0.96-5.55,0.96-5.55l5.58-3.1l9.61-5.33l4.22-2.35
					l2.38-1.32L219.75,159.97z"/>
				<g class="st17">
					<polygon class="st18" points="213.2,164.78 203.51,171.91 199.24,162.41 					"/>
					<polygon class="st18" points="212.3,149.5 203.36,153.04 203.13,145.49 207.35,143.14 					"/>
					<path class="st18" d="M196.72,156.94l-9.74,2.53c-0.02-3.58,0.96-5.55,0.96-5.55l5.58-3.1L196.72,156.94z"/>
					<path class="st18" d="M194.64,169.07l-1.61,7.12c-1.1-1.62-2.01-3.17-2.76-4.64L194.64,169.07z"/>
				</g>
			</g>
		</g>
	</g>
</g>
<g id="Luggage">
	<g>
		
			<rect x="244.98" y="260.29" transform="matrix(-0.9969 -0.0781 0.0781 -0.9969 478.9581 601.6166)" class="st20" width="12.53" height="62.31"/>
		<g>
			<path class="st10" d="M245.77,408.54c0.34,0.03,1.64,0.13,1.99,0.16c2.23,0.17,3.91,2.05,3.73,4.29
				c-0.17,2.23-2.12,3.83-4.35,3.65c-0.34-0.03-1.64-0.13-1.99-0.16c-2.23-0.17-3.91-2.05-3.73-4.29
				C241.59,409.96,243.54,408.37,245.77,408.54z"/>
			<path class="st15" d="M241.42,412.12c-0.17,2.23,1.49,4.18,3.73,4.36c2.23,0.17,4.18-1.49,4.36-3.73
				c0.18-2.23-1.49-4.18-3.73-4.36C243.55,408.22,241.6,409.89,241.42,412.12z"/>
		</g>
		<g>
			<path class="st10" d="M234.85,407.69c0.34,0.03,1.64,0.13,1.99,0.16c2.23,0.17,3.91,2.05,3.73,4.29
				c-0.17,2.23-2.12,3.83-4.35,3.65c-0.34-0.03-1.64-0.13-1.99-0.16c-2.23-0.17-3.91-2.05-3.73-4.29
				C230.67,409.11,232.62,407.51,234.85,407.69z"/>
			<path class="st9" d="M230.5,411.27c-0.17,2.23,1.49,4.18,3.73,4.36c2.23,0.17,4.18-1.49,4.36-3.73c0.17-2.23-1.49-4.18-3.73-4.36
				C232.63,407.37,230.68,409.03,230.5,411.27z"/>
		</g>
		<path class="st10" d="M233.03,408.89l15.47,1.21c1.48,0.12,2.78-0.99,2.9-2.48l7.37-94.03c0.12-1.48-0.99-2.78-2.48-2.9
			l-15.47-1.21c-1.48-0.12-2.78,0.99-2.9,2.48l-7.37,94.03C230.44,407.47,231.55,408.77,233.03,408.89z"/>
		<path class="st9" d="M240.75,409.49l7.75,0.61c1.48,0.12,2.78-0.99,2.9-2.48l7.37-94.03c0.12-1.48-0.99-2.78-2.48-2.9l-7.75-0.61
			c-1.48-0.12-2.78,0.99-2.9,2.48l-7.37,94.03C238.16,408.08,239.26,409.37,240.75,409.49z"/>
		<path class="st10" d="M247.13,261.74l13.01,1.02c1.1,0.09,2.06-0.74,2.15-1.84l0.1-1.22c0.09-1.1-0.74-2.06-1.84-2.15l-13.01-1.02
			c-1.1-0.09-2.06,0.74-2.15,1.84l-0.1,1.22C245.21,260.69,246.03,261.66,247.13,261.74z"/>
		<path class="st9" d="M247.13,261.74l13.01,1.02c1.1,0.09,2.06-0.74,2.15-1.84l0.1-1.22c0.09-1.1-0.74-2.06-1.84-2.15l-13.01-1.02
			c-1.1-0.09-2.06,0.74-2.15,1.84l-0.1,1.22C245.21,260.69,246.03,261.66,247.13,261.74z"/>
		<path class="st13" d="M247.13,261.74l1.09,0.09c1.1,0.09,2.06-0.74,2.15-1.84l0.1-1.22c0.09-1.1-0.74-2.06-1.84-2.15l-1.09-0.09
			c-1.1-0.09-2.06,0.74-2.15,1.84l-0.1,1.22C245.21,260.69,246.03,261.66,247.13,261.74z"/>
		<path class="st6" d="M287.54,320.64l-6.66,84.96c-0.24,3.12-2.98,5.46-6.1,5.22l-31.04-2.43c-2.19-0.17-3.83-2.1-3.65-4.29
			l6.92-88.32c0.17-2.2,2.09-3.84,4.28-3.67l31.04,2.43C285.44,314.78,287.78,317.52,287.54,320.64z"/>
		<path class="st9" d="M287.54,320.64l-6.66,84.96c-0.24,3.12-2.98,5.46-6.1,5.22l-31.04-2.43c-2.19-0.17-3.83-2.1-3.65-4.29
			l6.92-88.32c0.17-2.2,2.09-3.84,4.28-3.67l31.04,2.43C285.44,314.78,287.78,317.52,287.54,320.64z"/>
		<path class="st13" d="M266.22,313.28l-0.01,0.12l-1.11-0.09c-2.19-0.17-4.1,1.47-4.28,3.67l-6.92,88.34
			c-0.14,1.86,1.03,3.52,2.73,4.08l-12.89-1.01c-2.18-0.17-3.83-2.1-3.66-4.28l6.92-88.33c0.18-2.21,2.09-3.84,4.28-3.67
			L266.22,313.28z"/>
		<path class="st13" d="M259.01,405.16l-0.46-0.04c-0.6-0.05-1.05-0.57-1-1.17l6.78-86.61c0.05-0.6,0.57-1.05,1.17-1l0.46,0.04
			c0.6,0.05,1.05,0.57,1,1.17l-6.78,86.61C260.13,404.76,259.61,405.2,259.01,405.16z"/>
		<path class="st13" d="M265.21,406.08l-0.46-0.04c-0.6-0.05-1.05-0.57-1-1.17l6.78-86.61c0.05-0.6,0.57-1.05,1.17-1l0.46,0.04
			c0.6,0.05,1.05,0.57,1,1.17l-6.78,86.61C266.33,405.68,265.81,406.12,265.21,406.08z"/>
		<path class="st13" d="M271.41,406.44l-0.46-0.04c-0.6-0.05-1.05-0.57-1-1.17l6.78-86.61c0.05-0.6,0.57-1.05,1.17-1l0.46,0.04
			c0.6,0.05,1.05,0.57,1,1.17l-6.78,86.61C272.54,406.04,272.01,406.49,271.41,406.44z"/>
		<path class="st13" d="M277.62,406.8l-0.46-0.04c-0.6-0.05-1.05-0.57-1-1.17l6.78-86.61c0.05-0.6,0.57-1.05,1.17-1l0.46,0.04
			c0.6,0.05,1.05,0.57,1,1.17l-6.78,86.61C278.74,406.4,278.22,406.85,277.62,406.8z"/>
	</g>
</g>
</svg>
