<?xml version="1.0" standalone="no"?>
<!DOCTYPE svg PUBLIC "-//W3C//DTD SVG 20010904//EN"
 "http://www.w3.org/TR/2001/REC-SVG-20010904/DTD/svg10.dtd">
<svg version="1.0" xmlns="http://www.w3.org/2000/svg"
 width="700.000000pt" height="700.000000pt" viewBox="0 0 700.000000 700.000000"
 preserveAspectRatio="xMidYMid meet">
<metadata>
Created by potrace 1.14, written by Peter Selinger 2001-2017
</metadata>
<g transform="translate(0.000000,700.000000) scale(0.100000,-0.100000)"
fill="#000000" stroke="none">
<path d="M2121 6553 c-92 -24 -158 -79 -200 -168 -19 -41 -24 -67 -25 -152 0
-57 -3 -104 -6 -104 -3 -1 -151 -2 -330 -4 -273 -1 -335 -4 -390 -19 -159 -43
-303 -157 -373 -296 -72 -144 -67 25 -67 -2316 0 -2098 0 -2110 21 -2185 37
-135 121 -254 234 -331 65 -43 114 -65 200 -86 66 -16 213 -17 2330 -16 2073
1 2265 3 2319 18 94 26 192 84 260 152 69 68 104 121 144 222 l27 67 3 2140
c2 2126 2 2140 -18 2214 -60 214 -206 359 -421 417 -53 14 -118 18 -384 19
-176 2 -325 3 -330 4 -7 1 -11 37 -11 94 -1 116 -21 179 -77 240 -65 71 -115
92 -217 92 -97 0 -139 -17 -203 -82 -68 -67 -85 -123 -86 -273 l-1 -75 -1020
0 -1020 0 0 85 c-1 111 -13 164 -55 225 -66 97 -192 146 -304 118z"/>
</g>
</svg>
